<?xml version="1.0" encoding="UTF-8"?>
<svg id="Layer_1" data-name="Layer 1" xmlns="http://www.w3.org/2000/svg" viewBox="0 0 213.88 256.45">
  <defs>
    <style>
      .cls-1 {
        fill: #fff;
      }
    </style>
  </defs>
  <g id="Logo">
    <rect class="cls-1" x="96.26" y="106.08" width="70.25" height="70.25" rx="24.81" ry="24.81"/>
    <path class="cls-1" d="M32.11,106.08h-1.91v.06C13.44,107.13.15,121.03.15,138.04v105.33c0,7.23,5.86,13.08,13.08,13.08h37.76c7.23,0,13.08-5.86,13.08-13.08V106.08h-31.96Z"/>
    <rect class="cls-1" x="96.21" y="209.45" width="49.1" height="47" rx="23.5" ry="23.5"/>
    <path class="cls-1" d="M201.83,0H12.05C5.4,0,0,5.4,0,12.05v71.5c0,6.01,4.4,10.99,10.15,11.9v.13h1.23c.22.01.45.02.68.02h25.53c.23,0,.45,0,.68-.02h27.1c3.91-13.5,16.37-23.38,31.13-23.38h105.33c6.66,0,12.05-5.4,12.05-12.05V12.05c0-6.66-5.4-12.05-12.05-12.05Z"/>
  </g>
</svg>